<svg xmlns="http://www.w3.org/2000/svg" viewBox="0 0 235.91 235.91"><defs><style>.cls-1{fill:#fff;}</style></defs><g id="Layer_2" data-name="Layer 2"><g id="Layer_1-2" data-name="Layer 1"><circle class="cls-1" cx="117.95" cy="117.95" r="117.95"/></g><g id="Layer_2-2" data-name="Layer 2"><path d="M118.34,31.83l.19-2.21,2-.2,1.17-13.18-1.92-.55.19-2.22,14.62,1.29-.44,5-2.83-.25,0-2.21-6-.53-.45,5.06,6.43.57-.25,2.84-6.43-.57-.45,5.05,1.94.55-.2,2.2Z"/><path d="M144.6,36.63a9,9,0,0,1-3.43-1.92,5.92,5.92,0,0,1-1.78-2.9,6.41,6.41,0,0,1,.22-3.62l3-9.15-1.74-1,.69-2.12,7.26,2.38-.7,2.12-2-.25-3,9.14a4.23,4.23,0,0,0-.21,2.06,2.81,2.81,0,0,0,.83,1.55,5.09,5.09,0,0,0,3.76,1.23,2.75,2.75,0,0,0,1.58-.75,4.26,4.26,0,0,0,1.06-1.79l3-9.15-1.74-1,.69-2.12,7.26,2.38-.7,2.12-2-.25-3,9.14a6.35,6.35,0,0,1-2,3.05,5.91,5.91,0,0,1-3.15,1.29A9.36,9.36,0,0,1,144.6,36.63Z"/><path d="M156.18,40.8l1.15-1.9,1.87.68L166,28.24l-1.49-1.34L165.68,25l1.68,1,3.17,1.91,1.91,1.15L171.3,31l-2.11-.83L162.5,41.28,167,44l1.54-2.22,2.42,1.46-2.85,4.74Z"/><path d="M170.63,49.86l1.49-1.64,1.71,1,8.91-9.78-1.19-1.61,1.5-1.64,1.45,1.32L187.23,40l1.65,1.5-1.5,1.65L185.47,42l-8.74,9.6,3.84,3.51,2-1.88,2.09,1.9-3.73,4.09Z"/><path d="M188.65,58.55l2.24-1.75,4.39,5.63L193,64.18Z"/><path d="M193.74,78.24a14.12,14.12,0,0,1-1.33-3.49,10.74,10.74,0,0,1-.14-3.65L196.2,69l1.34,2.53-2.13,1.57a4.42,4.42,0,0,0,.05,1.76,7.6,7.6,0,0,0,.76,2.06,4.61,4.61,0,0,0,1,1.36,2.28,2.28,0,0,0,1.2.56,2,2,0,0,0,1.23-.25,2.11,2.11,0,0,0,.89-.83,3,3,0,0,0,.33-1.38,10.32,10.32,0,0,0-.22-2.15,19.33,19.33,0,0,1-.45-3.87,5.69,5.69,0,0,1,.61-2.76,4.56,4.56,0,0,1,1.94-1.84,4.37,4.37,0,0,1,2.72-.51,5.69,5.69,0,0,1,2.68,1.19,8.6,8.6,0,0,1,2.19,2.68,11.71,11.71,0,0,1,1.32,3.56,9.05,9.05,0,0,1,0,3.2L208,77.83l-1.3-2.45,2-1.61a5.29,5.29,0,0,0-.14-1.39,7,7,0,0,0-.67-1.75,4.39,4.39,0,0,0-1-1.26,2.47,2.47,0,0,0-1.18-.58,2,2,0,0,0-1.27.23,1.74,1.74,0,0,0-.8.81,3.29,3.29,0,0,0-.23,1.42,15.89,15.89,0,0,0,.26,2.37,11.72,11.72,0,0,1,.19,5.14,4.64,4.64,0,0,1-2.5,3.11,4.36,4.36,0,0,1-2.79.52A5.35,5.35,0,0,1,196,81.12,9.75,9.75,0,0,1,193.74,78.24Z"/><path d="M199.62,91.23l2.13-.59.9,1.8L215.16,89l-.89-3.24-2.18.4-.75-2.7,4.87-1.35,4.4,15.85-4.87,1.35L215,96.57l2.07-.78-.91-3.26L203.64,96l.16,2-2.13.6Z"/><path d="M203,103.47l2.21-.14.27,1.31,16.37,4.85.24,3.78-15.64,6.81-.11,1.33-2.21.14-.39-6.27,2.21-.14.31,1.26,2.48-1-.41-6.47-2.58-.65-.14,1.29-2.22.14Zm8.1,6.2.3,4.72,6.17-2.54.55-.21v-.08l-.61-.15Z"/><path d="M202.29,132.42a9.39,9.39,0,0,1,1.83-4.44,7.68,7.68,0,0,1,3.62-2.55,10.3,10.3,0,0,1,5-.31l.62.1a10.28,10.28,0,0,1,4.53,1.76,8,8,0,0,1,2.75,3.45,8.64,8.64,0,0,1,.45,4.74,11.3,11.3,0,0,1-1.07,3.39,8.6,8.6,0,0,1-2.06,2.64l-4.4-.69.43-2.71,2.82.06a5.21,5.21,0,0,0,.65-.82,5.28,5.28,0,0,0,.5-1,6.91,6.91,0,0,0,.3-1.21,4.7,4.7,0,0,0-.34-2.79,5,5,0,0,0-1.89-2,8.38,8.38,0,0,0-3.22-1.12l-.64-.1a8.17,8.17,0,0,0-3.41.11,5.06,5.06,0,0,0-2.45,1.43,4.94,4.94,0,0,0-1.2,2.61,7.19,7.19,0,0,0-.06,1.61,7,7,0,0,0,.24,1.52l2.5.78-.42,2.71-4.36-.68a10.35,10.35,0,0,1-.76-2.84A12.17,12.17,0,0,1,202.29,132.42Z"/><path d="M196.83,151.84l2,.84-.51,1.66h0l7.75-1.89,1.34,3.18-10.56,2.74-1,1.56-2-.84Zm4-9.82,2.05.84-.39,2,12.24,5,1.1-1.67,2.06.84-2.85,7-2.06-.85.35-1.88-12.24-5L200,149.84l-2-.84Zm2.33,6.24,2.75-.94,5.2,11.88,0,0,.83-1.63,2.07.84-2.87,7-2.07-.84.34-1.74Z"/><path d="M178.2,179.5l13.5,9.63,1.58-1.06,1.41,1.72L189,194.51l-1.42-1.72,1.35-1.48-7.38-5.54-1.35-1,0,.05.68,1.57,4.5,11.17-2.1,1.74-10.43-6.7-1.27-.84-.06,0,.63,1.37,4.18,8.58,1.81-1.11,1.42,1.72L173.86,207l-1.42-1.72,1.24-1.26-6.86-15.11,2.58-2.13,9.56,6.08,1.31.9.06-.05-.62-1.53-4.11-10.52Z"/><path d="M159.34,193.53l.89,2-1.64,1.13,5.31,12.12,1.95-.44.9,2-13.1,5.75-2-4.56,2.59-1.14,1,1.89,5.17-2.27-1.86-4.25-5.72,2.51-1.14-2.61,5.71-2.51-2.11-4.82-5.45,2.39.73,2.08L148,204l-2-4.61Z"/><path d="M142.42,200.6l.43,2.17-1.85.76,2.58,13h2l.44,2.18-1.93.39L138,220.28a8.85,8.85,0,0,1-5.23-.25,4.3,4.3,0,0,1-2.52-3.36,3.93,3.93,0,0,1,.22-2.38,4.07,4.07,0,0,1,1.63-1.86,4.25,4.25,0,0,1-2-.48,3.77,3.77,0,0,1-1.37-1.23,4.62,4.62,0,0,1-.73-1.78,4.73,4.73,0,0,1,.93-4.27,7.84,7.84,0,0,1,4.59-2.3Zm-5,3.88-3.34.67a3.41,3.41,0,0,0-2.07,1.06,2.34,2.34,0,0,0-.39,2,3.5,3.5,0,0,0,.59,1.45,2,2,0,0,0,1,.74,3.38,3.38,0,0,0,1.59,0l3.61-.72Zm1.54,7.73-2.61.52a3.72,3.72,0,0,0-2.12,1,2.09,2.09,0,0,0-.43,1.89,2.22,2.22,0,0,0,1.15,1.7,4,4,0,0,0,2.48.13l2.48-.5Z"/><path d="M106.68,203.44l-.5,2.16-2,0-3,12.81,1.84.86-.5,2.18L100.6,221l-5.95-1.38a8.22,8.22,0,0,1-4-2.1,8,8,0,0,1-2.14-3.79,10,10,0,0,1,0-4.81l.08-.33a10,10,0,0,1,2.07-4.31,7.89,7.89,0,0,1,3.56-2.47,8,8,0,0,1,4.5-.16Zm-6.18,1.47-2.2-.51a4.19,4.19,0,0,0-2.71.2,5.08,5.08,0,0,0-2.09,1.79,8.74,8.74,0,0,0-1.27,3l-.08.35A8.58,8.58,0,0,0,92,213a5,5,0,0,0,1.09,2.5,4.25,4.25,0,0,0,2.35,1.35l2.21.51Z"/><path d="M87.48,198.56l-1,2L84.58,200,78.82,212l1.61,1.19-1,2-12.89-6.23,2.17-4.48,2.55,1.24-.77,2,5.08,2.46,2-4.17L72,203.24l1.24-2.56,5.62,2.71,2.29-4.74-5.36-2.59L74.68,198l-2.53-1.22,2.19-4.54Z"/><path d="M65.4,185.82,60,202l1.16,1.2-1.41,1.73L54,200.31l1.4-1.73,1.45.84,4-10.73.42-1-.06,0-.83.6-9.67,6.2,1.35,1.42-1.4,1.73-5.44-4.39,1.4-1.74,1.43.9,14.38-9Z"/><path d="M54.94,176.7l-1.74,1.36-1.51-1.31-10.43,8.14.91,1.78-1.76,1.38-8.8-11.28,3.92-3.06,1.74,2.23-1.57,1.44,3.47,4.45L42.83,179,39,174.06l2.25-1.75,3.84,4.92L49.22,174l-3.66-4.69-1.84,1.23L42,168.3l4-3.1Z"/><path d="M44,162l-2,1-1.21-1.59-11.87,5.84.52,1.93-2,1-.86-1.76L24.91,165l-1-2,2-1,1.32,1.83,11.66-5.74-2.3-4.67-2.49,1L32.87,152l5-2.44Z"/><path d="M34.93,138.66a8.15,8.15,0,0,1,.14,3.46,7.64,7.64,0,0,1-1.26,3,8.88,8.88,0,0,1-2.47,2.37A11.23,11.23,0,0,1,27.87,149l-.27.07a11.08,11.08,0,0,1-3.75.31,9.08,9.08,0,0,1-3.29-.92A7.56,7.56,0,0,1,18,146.37a8.09,8.09,0,0,1-1.5-3.12,8.31,8.31,0,0,1-.15-3.49,7.68,7.68,0,0,1,1.27-3,8.87,8.87,0,0,1,2.46-2.38,11.11,11.11,0,0,1,3.47-1.49l.27-.06a11.13,11.13,0,0,1,3.76-.32,8.91,8.91,0,0,1,3.29.95,7.92,7.92,0,0,1,2.54,2.1A8.22,8.22,0,0,1,34.93,138.66Zm-2.79.69A4.11,4.11,0,0,0,30.72,137a4.86,4.86,0,0,0-2.58-1,10.2,10.2,0,0,0-3.42.31l-.29.08a9.65,9.65,0,0,0-3.13,1.32,4.92,4.92,0,0,0-1.82,2.08,4.16,4.16,0,0,0-.16,2.72,4.06,4.06,0,0,0,1.4,2.3,4.89,4.89,0,0,0,2.56,1,9.86,9.86,0,0,0,3.4-.32l.3-.07a10.12,10.12,0,0,0,3.17-1.32,4.77,4.77,0,0,0,1.82-2A4,4,0,0,0,32.14,139.35Z"/><path d="M32.31,127.36l-2.22,0-.42-2-13.23.26-.34,2-2.23,0,0-2L13.7,119a8.32,8.32,0,0,1,.67-3.66,5.41,5.41,0,0,1,2-2.39,5.73,5.73,0,0,1,3.06-.89,5.74,5.74,0,0,1,3.1.76,5.58,5.58,0,0,1,2.1,2.32,8.52,8.52,0,0,1,.8,3.63l.06,3.11,4.09-.08.34-2,2.22,0Zm-9.65-5.47-.06-3.11a3.05,3.05,0,0,0-.89-2.32,3,3,0,0,0-2.16-.75,3.18,3.18,0,0,0-2.18.83,3,3,0,0,0-.82,2.36l.06,3.11Z"/><path d="M32.29,108.78l-2.18-.43v-2l-13-2.54-.75,1.85-2.19-.43,2.76-14,4.88,1-.54,2.78-2.12-.25-1.09,5.54,4.55.9L23.83,95l2.79.55-1.2,6.12,5.17,1,1.15-5.84-2.13-.59.54-2.76,4.94,1Z"/><path d="M36.09,90.86l-2-.9L34.51,88,22.4,82.67l-1.14,1.65-2-.9,3.53-8a9.18,9.18,0,0,1,2.07-3.07A5.13,5.13,0,0,1,27.49,71a5.21,5.21,0,0,1,3,.44,5.28,5.28,0,0,1,2.32,1.91,5.57,5.57,0,0,1,.94,2.88,7.39,7.39,0,0,1-.66,3.35l-1.41,3.18L36,84.63,37.14,83l2,.89Zm-7-9.27,1.22-2.76a3.57,3.57,0,0,0,.34-2.45,2.43,2.43,0,0,0-1.48-1.52A2.72,2.72,0,0,0,27,74.75a3.24,3.24,0,0,0-1.64,1.82l-1.24,2.82ZM40.88,80l-8.54-.37.59-3.38,6.76,0,1-1.29,2,.89Z"/></g></g></svg>